PathFileType	4	(X/Y/Z)	c:/Users/goper/Files/vsCode/490R/osim_files/C05/C05_SSWS_02.trc
DataRate	CameraRate	NumFrames	NumMarkers	Units                	OrigDataRate	OrigDataStartFrame	OrigNumFrames
250.00	250.00	6	36	mm	250.0	1570	3138
                Frame#	Time	LPSIS			LASIS			LTH1			LTH2			LTH3			LTH4			LLFE			LMFE			LSH1			LSH2			LSH3			LSH4			LLMAL			LMMAL			LCAL			LMTP5			LTOE			LMTP1			RPSIS			RASIS			RTH1			RTH2			RTH3			RTH4			RLFE			RMFE			RSH1			RSH2			RSH3			RSH4			RLMAL			RMMAL			RCAL			RMTP1			RTOE			RMTP5		
		X1	Y1	Z1	X2	Y2	Z2	X3	Y3	Z3	X4	Y4	Z4	X5	Y5	Z5	X6	Y6	Z6	X7	Y7	Z7	X8	Y8	Z8	X9	Y9	Z9	X10	Y10	Z10	X11	Y11	Z11	X12	Y12	Z12	X13	Y13	Z13	X14	Y14	Z14	X15	Y15	Z15	X16	Y16	Z16	X17	Y17	Z17	X18	Y18	Z18	X19	Y19	Z19	X20	Y20	Z20	X21	Y21	Z21	X22	Y22	Z22	X23	Y23	Z23	X24	Y24	Z24	X25	Y25	Z25	X26	Y26	Z26	X27	Y27	Z27	X28	Y28	Z28	X29	Y29	Z29	X30	Y30	Z30	X31	Y31	Z31	X32	Y32	Z32	X33	Y33	Z33	X34	Y34	Z34	X35	Y35	Z35	X36	Y36	Z36

1570	6.27600	91.76654	1046.99463	343.64648	-108.44966	1010.88007	400.84909	-46.37939	700.23718	435.60895	-40.09291	639.56464	426.15051	30.49645	701.98029	444.53284	27.05508	639.53821	433.73596	2.49767	532.84296	407.90738	13.68647	527.82880	290.61136	123.41847	369.09021	408.65735	125.41462	325.41269	401.49384	61.47928	357.50919	417.81763	73.30391	316.31616	408.75812	138.70125	102.14393	357.82748	110.23457	113.14516	276.34085	198.87250	76.22798	306.02023	5.11889	36.29614	393.17700	-36.47004	58.65477	331.99631	-16.61136	39.16859	285.11563	91.31471	1047.05261	234.87476	-98.73595	1015.64172	171.39050	-194.16452	720.53802	111.02904	-224.65358	667.66962	122.78930	-131.06148	679.47845	109.69399	-170.86510	631.58771	123.77045	0.00000	0.00000	0.00000	-247.19533	572.83942	138.06982	-169.68425	417.40088	118.80360	-173.63397	369.51053	120.86233	-231.39848	413.26370	118.73984	-226.43233	367.13058	122.14333	-185.59659	131.40746	147.42531	-218.50955	137.21938	230.49872	-127.87435	97.46044	202.70782	-342.61740	65.08129	204.73563	-356.56448	93.28072	156.67886	-303.36325	62.72539	99.19341
1571	6.28000	87.57176	1046.70508	343.14236	-112.52486	1010.38312	400.76358	-48.96589	699.89380	435.40857	-42.43207	639.27142	425.99240	27.92300	701.88019	444.58005	24.72793	639.43073	433.74179	0.73433	532.59814	407.92819	12.13153	527.61273	290.53683	122.43675	369.35410	408.60391	124.55352	325.65384	401.44748	60.49976	357.50723	417.73056	72.45643	316.40085	408.73206	138.50333	102.32519	357.79568	110.00580	113.26583	276.30496	198.77249	76.51312	305.98187	5.08497	36.29070	393.17981	-36.56952	58.56985	331.99652	-16.65514	39.13093	285.10745	86.82596	1046.75549	234.39569	-103.39719	1015.20013	171.24573	-197.60146	719.34491	110.78131	-227.90390	666.41522	122.76413	-134.43686	678.52197	109.89963	-174.13161	630.54663	123.93721	0.00000	0.00000	0.00000	-250.55518	571.87701	137.77611	-176.29587	414.93060	118.68528	-181.48936	367.06909	120.60541	-237.99556	412.37125	118.37366	-234.25490	365.59290	121.18990	-200.28973	129.22238	146.96873	-232.50415	136.24776	229.68529	-143.09624	94.29713	202.97888	-358.92480	66.55522	204.06068	-372.12161	94.90332	156.00041	-319.54330	63.09859	98.67117
1572	6.28400	83.37843	1046.41553	342.56525	-116.63152	1009.83722	400.66315	-51.52503	699.56665	435.25064	-44.74363	638.97760	425.77277	25.31507	701.75763	444.59747	22.41092	639.34253	433.75464	-1.01385	532.41663	407.88553	10.51054	527.40692	290.45819	121.39051	369.61548	408.56683	123.76752	325.93759	401.43152	59.40776	357.51660	417.66153	71.57237	316.50137	408.67960	138.32855	102.52073	357.75632	109.75795	113.38438	276.25723	198.66701	76.78474	305.93164	5.08253	36.31908	393.18115	-36.56849	58.48906	331.91373	-16.69551	39.05235	285.05038	82.42152	1046.38904	233.90182	-107.99235	1014.68256	171.03262	-201.11913	718.11664	110.51395	-231.08521	665.06500	122.76281	-137.71765	677.40784	110.15463	-176.54797	629.79230	123.52388	0.00000	0.00000	0.00000	-253.96980	570.91748	137.56186	-182.86829	412.32211	118.68745	-189.27454	364.70816	120.49639	-244.54434	411.47723	118.12890	-241.98129	364.63379	120.79645	-214.88434	127.16180	146.61002	-247.24883	134.40556	228.80486	-159.06160	90.59231	201.97287	-375.08621	68.41143	203.55644	-387.49060	96.90800	155.30930	-335.58035	63.70425	98.19911
1573	6.28800	79.07927	1046.04810	342.00214	-120.66694	1009.27594	400.57053	-54.09039	699.29608	435.07071	-47.03556	638.68677	425.59766	22.64632	701.63721	444.64163	20.02094	639.24304	433.75717	-2.74957	532.26471	407.88095	8.88252	527.23462	290.36990	120.36652	369.85059	408.49753	122.84689	326.20593	401.36938	58.37776	357.54910	417.64728	70.71546	316.63205	408.63477	138.18420	102.74696	357.69247	109.52293	113.53680	276.21924	198.53990	77.07603	305.90091	5.05560	36.33871	393.19589	-36.32233	58.50030	331.56506	-16.74181	39.03486	284.78278	77.88097	1046.02295	233.35269	-112.58060	1014.16595	170.89182	-204.22409	716.59760	110.23023	-234.10524	663.50873	122.68862	-140.79495	676.20001	110.42087	-179.61769	628.40717	123.76748	0.00000	0.00000	0.00000	-257.23846	569.71069	137.20453	-189.30225	409.75089	118.67649	-197.59869	362.30875	119.90375	-250.83937	410.57315	117.94767	-249.60690	363.56876	120.31187	-229.40720	125.44140	146.27325	-262.07547	133.71893	228.54689	-174.35849	87.72029	201.77559	-390.96292	70.50516	202.94534	-402.69479	99.23296	154.65808	-351.34219	64.74068	97.74779
1574	6.29200	74.68279	1045.68726	341.43436	-124.94144	1008.74792	400.47308	-56.70568	698.86969	434.65051	-49.39391	638.36090	425.39813	20.01348	701.53607	444.64151	17.69100	639.12946	433.75513	-4.52653	532.13940	407.92252	7.16996	527.02582	290.32874	119.38708	370.19006	408.44803	121.97612	326.45782	401.26703	57.39232	357.57504	417.62018	69.81714	316.73761	408.60120	137.97871	102.96400	357.67154	109.27544	113.67759	276.18817	198.41396	77.37337	305.86743	5.06514	36.33289	393.20087	-36.75956	58.35271	331.89011	-16.83236	39.00315	285.02014	73.26955	1045.55640	232.87173	-117.39193	1013.65662	170.73280	-207.50562	715.07050	109.97377	-237.44621	661.81158	121.59819	-143.24007	674.77185	110.51067	-182.36528	627.03125	123.97488	0.00000	0.00000	0.00000	-260.40512	568.45410	136.82808	-195.63658	407.24878	118.62695	-204.90015	359.91345	120.79419	-257.03894	409.60547	117.69997	-257.18311	362.62582	119.94316	-243.72575	123.88995	146.00673	-276.15274	133.17082	227.85342	-189.79567	85.04120	201.62837	-406.84311	72.93123	202.41827	-417.88327	102.02279	154.05992	-367.12970	65.95062	97.33186
1575	6.29600	70.37097	1045.23267	340.88766	-129.06342	1008.22302	400.38907	-59.27448	698.62970	434.76541	-51.76718	638.14398	425.16986	17.41392	701.41803	444.67319	15.33418	639.05804	433.71536	-5.73306	531.90723	407.85284	5.68896	526.93976	290.23456	118.32188	370.44119	408.38803	121.02894	326.77652	401.20193	56.42698	357.65594	417.64169	68.95954	316.83688	408.58344	137.79070	103.15324	357.66180	109.03779	113.84336	276.16727	198.31851	77.65022	305.83093	5.05983	36.32440	393.22791	-36.84140	58.26929	331.90945	-16.87275	38.96609	285.03033	68.76937	1045.08203	232.31276	-122.03976	1013.10303	170.53799	-210.22087	713.49524	109.91016	-240.31825	660.00043	121.21786	-146.17709	673.48352	110.92203	-184.98154	625.54700	124.14635	0.00000	0.00000	0.00000	-263.46664	566.96490	136.43527	-202.02333	404.71991	118.69656	-212.13744	357.67844	120.31062	-263.40839	408.29672	116.52177	-264.65265	361.64374	119.55719	-257.88785	122.64552	145.75002	-290.24634	132.76740	227.55042	-205.04436	82.49117	201.56105	-422.39273	75.73190	201.98743	-432.49222	104.96650	153.42216	-382.60272	67.61520	96.99516
